<?xml version="1.0" encoding="UTF-8" standalone="no"?>
<!-- Created with Inkscape (http://www.inkscape.org/) -->

<svg
   xmlns:dc="http://purl.org/dc/elements/1.1/"
   xmlns:cc="http://creativecommons.org/ns#"
   xmlns:rdf="http://www.w3.org/1999/02/22-rdf-syntax-ns#"
   xmlns:svg="http://www.w3.org/2000/svg"
   xmlns="http://www.w3.org/2000/svg"
   xmlns:sodipodi="http://sodipodi.sourceforge.net/DTD/sodipodi-0.dtd"
   xmlns:inkscape="http://www.inkscape.org/namespaces/inkscape"
   width="46.56229mm"
   height="30.527081mm"
   viewBox="0 0 46.56229 30.527081"
   version="1.1"
   id="svg1039"
   inkscape:version="0.92.4 (5da689c313, 2019-01-14)"
   sodipodi:docname="chromatic_abberation.svg"
   inkscape:export-filename="/home/schmid/Fotokurs/abbildungen/chromatic_abberation.png"
   inkscape:export-xdpi="600.06"
   inkscape:export-ydpi="600.06">
  <defs
     id="defs1033" />
  <sodipodi:namedview
     id="base"
     pagecolor="#ffffff"
     bordercolor="#666666"
     borderopacity="1.0"
     inkscape:pageopacity="0.0"
     inkscape:pageshadow="2"
     inkscape:zoom="2.8"
     inkscape:cx="121.82022"
     inkscape:cy="45.292606"
     inkscape:document-units="mm"
     inkscape:current-layer="layer1"
     showgrid="false"
     fit-margin-top="0"
     fit-margin-left="0"
     fit-margin-right="0"
     fit-margin-bottom="0"
     inkscape:window-width="1916"
     inkscape:window-height="1002"
     inkscape:window-x="1920"
     inkscape:window-y="76"
     inkscape:window-maximized="0" />
  <metadata
     id="metadata1036">
    <rdf:RDF>
      <cc:Work
         rdf:about="">
        <dc:format>image/svg+xml</dc:format>
        <dc:type
           rdf:resource="http://purl.org/dc/dcmitype/StillImage" />
        <dc:title></dc:title>
      </cc:Work>
    </rdf:RDF>
  </metadata>
  <g
     inkscape:label="Layer 1"
     inkscape:groupmode="layer"
     id="layer1"
     transform="translate(-26.817302,-101.60625)">
    <path
       style="opacity:1;fill:#ffffff;fill-opacity:1;fill-rule:nonzero;stroke:#000000;stroke-width:0.1;stroke-linecap:round;stroke-linejoin:miter;stroke-miterlimit:4;stroke-dasharray:none;stroke-dashoffset:0;stroke-opacity:1"
       d="m 41.918031,116.86979 a 1.3229166,15.213541 0 0 0 1.32292,15.21354 1.3229166,15.213541 0 0 0 0.0207,-0.008 c 0.007,0.003 0.0122,0.008 0.0202,0.008 h 1.20096 c 0.0137,0 0.025,-0.007 0.0351,-0.015 a 1.3229166,15.213541 0 0 0 0.0258,0.015 1.3229166,15.213541 0 0 0 1.32292,-15.21354 1.3229166,15.213541 0 0 0 -1.32292,-15.21354 1.3229166,15.213541 0 0 0 -0.0305,0.0124 c -0.009,-0.006 -0.0186,-0.0124 -0.0305,-0.0124 h -1.20096 c -0.009,0 -0.0159,0.006 -0.0238,0.01 a 1.3229166,15.213541 0 0 0 -0.017,-0.01 1.3229166,15.213541 0 0 0 -1.32292,15.21354 z"
       id="path1829"
       inkscape:connector-curvature="0" />
    <path
       style="fill:none;stroke:#000000;stroke-width:0.26499999;stroke-linecap:butt;stroke-linejoin:miter;stroke-miterlimit:4;stroke-dasharray:1.05999995, 1.05999995;stroke-dashoffset:0;stroke-opacity:1"
       d="M 26.817302,116.86979 H 72.830947"
       id="path1590"
       inkscape:connector-curvature="0"
       sodipodi:nodetypes="cc" />
    <path
       style="fill:none;stroke:#ff0000;stroke-width:0.26458332px;stroke-linecap:butt;stroke-linejoin:miter;stroke-opacity:1"
       d="m 27.328309,104.36549 h 15.100729 l 2.873147,0.93544 27.996483,21.64883"
       id="path1592"
       inkscape:connector-curvature="0" />
    <path
       inkscape:connector-curvature="0"
       id="path1613"
       d="m 27.328309,129.30299 h 15.100729 l 2.873147,-0.93544 27.996483,-21.64883"
       style="fill:none;stroke:#ff0000;stroke-width:0.26458332px;stroke-linecap:butt;stroke-linejoin:miter;stroke-opacity:1" />
    <path
       inkscape:connector-curvature="0"
       id="path1609"
       d="m 27.328309,104.63277 h 15.100729 l 3.033271,1.42609 24.48182,21.15818"
       style="fill:none;stroke:#00ff05;stroke-width:0.26458332px;stroke-linecap:butt;stroke-linejoin:miter;stroke-opacity:1"
       sodipodi:nodetypes="cccc" />
    <path
       sodipodi:nodetypes="cccc"
       style="fill:none;stroke:#00ff05;stroke-width:0.26458332px;stroke-linecap:butt;stroke-linejoin:miter;stroke-opacity:1"
       d="m 27.328309,129.03571 h 15.100729 l 3.033271,-1.42609 24.48182,-21.15818"
       id="path1615"
       inkscape:connector-curvature="0" />
    <path
       sodipodi:nodetypes="cccc"
       style="fill:none;stroke:#0003ff;stroke-width:0.26458332px;stroke-linecap:butt;stroke-linejoin:miter;stroke-opacity:1"
       d="m 27.328309,104.86902 h 15.100729 l 3.09233,1.95762 20.737493,20.62665"
       id="path1611"
       inkscape:connector-curvature="0" />
    <path
       inkscape:connector-curvature="0"
       id="path1617"
       d="m 27.328309,128.79946 h 15.100729 l 3.09233,-1.95762 20.737493,-20.62665"
       style="fill:none;stroke:#0003ff;stroke-width:0.26458332px;stroke-linecap:butt;stroke-linejoin:miter;stroke-opacity:1"
       sodipodi:nodetypes="cccc" />
    <path
       style="fill:none;stroke:#000000;stroke-width:0.565;stroke-linecap:butt;stroke-linejoin:miter;stroke-miterlimit:4;stroke-dasharray:none;stroke-opacity:1"
       d="m 57.92485,112.08457 v 9.73288"
       id="path1619"
       inkscape:connector-curvature="0" />
  </g>
</svg>
